<svg width="70" height="80" fill="none" xmlns="http://www.w3.org/2000/svg"><path d="M61.154 6.671h-5.56V4.448c0-1.168-.445-2.335-1.279-3.17C53.483.446 52.316 0 51.148 0c-1.168 0-2.335.445-3.17 1.279-.833.834-1.278 2.001-1.278 3.169V6.67h-8.895V4.448c0-1.168-.445-2.335-1.279-3.17C35.691.446 34.524 0 33.356 0c-1.167 0-2.335.445-3.168 1.279-.834.834-1.279 2.001-1.279 3.169V6.67h-8.895V4.448c0-1.168-.445-2.335-1.279-3.17C17.901.446 16.734 0 15.566 0c-1.167 0-2.335.445-3.168 1.279-.834.834-1.28 2.001-1.28 3.169V6.67H5.56c-1.5 0-2.89.612-3.947 1.613C.612 9.34 0 10.73 0 12.23v53.76c0 1.5.612 2.89 1.612 3.947C2.67 70.993 4.058 71.55 5.56 71.55h31.133c.278 0 .556-.111.779-.334.222-.222.333-.5.333-.778s-.111-.556-.334-.779a1.098 1.098 0 00-.778-.333H5.56c-.89 0-1.723-.334-2.335-1-.611-.612-1-1.446-1-2.336V22.238h62.265v28.186c0 .278.111.556.334.778.222.223.5.334.778.334s.556-.111.778-.334c.223-.222.334-.5.334-.778V12.23c0-1.501-.611-2.891-1.612-3.947-1.056-1.001-2.446-1.613-3.947-1.613zM48.923 4.448c0-.612.222-1.168.667-1.557.39-.445.945-.667 1.557-.667.611 0 1.167.222 1.556.667.445.39.667.945.667 1.557v6.67c0 .612-.222 1.168-.667 1.557-.389.445-.945.668-1.556.668-.612 0-1.168-.223-1.557-.668-.445-.389-.667-.945-.667-1.556V4.448zm-17.79 0c0-.612.222-1.168.667-1.557.389-.445.945-.667 1.556-.667.612 0 1.168.222 1.557.667.445.39.667.945.667 1.557v6.67c0 .612-.222 1.168-.667 1.557-.389.445-.945.668-1.556.668-.612 0-1.168-.223-1.557-.668-.445-.389-.667-.945-.667-1.556V4.448zm-17.79 0c0-.612.222-1.168.667-1.557.389-.445.945-.667 1.556-.667.612 0 1.168.222 1.557.667.445.39.667.945.667 1.557v6.67c0 .612-.222 1.168-.667 1.557-.39.445-.945.668-1.557.668-.611 0-1.167-.223-1.556-.668-.445-.389-.667-.945-.667-1.556V4.448zm51.146 15.566H2.224V12.23c0-.89.333-1.724 1-2.335.612-.667 1.446-1 2.335-1h5.56v2.223c0 1.167.445 2.335 1.279 3.169.833.834 1.945 1.278 3.168 1.278s2.335-.444 3.17-1.278c.833-.834 1.278-1.946 1.278-3.17V8.896h8.895v2.224c0 1.167.445 2.335 1.279 3.169.834.834 1.945 1.278 3.168 1.278 1.224 0 2.335-.444 3.17-1.278.833-.834 1.278-1.946 1.278-3.17V8.896h8.895v2.224c0 1.167.445 2.335 1.279 3.169.834.834 1.946 1.278 3.169 1.278s2.335-.444 3.169-1.278c.833-.834 1.278-1.946 1.278-3.17V8.896h5.56c.89 0 1.723.334 2.334 1 .612.612 1.001 1.446 1.001 2.336v7.783z" fill="#090750"/><path d="M31.133 39.305c0-.611-.223-1.167-.667-1.557-.445-.444-1.001-.667-1.557-.667h-4.448c-.611 0-1.167.223-1.556.667-.445.445-.667 1.001-.667 1.557v3.336c0 .611.222 1.167.667 1.556.445.445 1 .667 1.556.667h4.448c.611 0 1.167-.222 1.557-.667.444-.444.667-1 .667-1.556v-3.336zm-6.672 3.336v-3.336h4.448v3.336h-4.448zM17.79 39.305c0-.611-.222-1.167-.667-1.557-.445-.444-1-.667-1.557-.667H11.12c-.612 0-1.168.223-1.557.667-.445.445-.667 1.001-.667 1.557v3.336c0 .611.222 1.167.667 1.556.445.445 1 .667 1.557.667h4.447c.612 0 1.168-.222 1.557-.667.445-.444.667-1 .667-1.556v-3.336zm-6.671 3.336v-3.336h4.447v3.336H11.12zM55.594 44.864c.612 0 1.168-.222 1.557-.667.444-.444.667-1 .667-1.556v-3.336c0-.611-.222-1.167-.667-1.557-.445-.444-1-.667-1.557-.667h-4.447c-.612 0-1.168.223-1.557.667-.445.445-.667 1.001-.667 1.557v3.336c0 .611.222 1.167.667 1.556.445.445 1 .667 1.557.667h4.447zm-4.447-5.559h4.447v3.336h-4.447v-3.336zM31.133 49.312c0-.611-.223-1.167-.667-1.556-.445-.445-1.001-.668-1.557-.668h-4.448c-.611 0-1.167.223-1.556.667-.445.445-.667 1.001-.667 1.557v3.336c0 .611.222 1.167.667 1.556.445.445 1 .668 1.556.668h4.448c.611 0 1.167-.223 1.557-.668.444-.444.667-1 .667-1.556v-3.336zm-6.672 3.336v-3.336h4.448v3.336h-4.448zM17.79 49.312c0-.611-.222-1.167-.667-1.556-.445-.445-1-.668-1.557-.668H11.12c-.612 0-1.168.223-1.557.667-.445.445-.667 1.001-.667 1.557v3.336c0 .611.222 1.167.667 1.556.445.445 1 .668 1.557.668h4.447c.612 0 1.168-.223 1.557-.668.445-.444.667-1 .667-1.556v-3.336zm-6.671 3.336v-3.336h4.447v3.336H11.12zM28.909 57.095h-4.448c-.611 0-1.167.223-1.556.667-.445.445-.667 1.001-.667 1.557v3.336c0 .611.222 1.167.667 1.556.445.445 1 .667 1.556.667h4.448c.611 0 1.167-.222 1.557-.667.444-.444.667-1 .667-1.556v-3.336c0-.612-.223-1.168-.667-1.557-.39-.444-.946-.667-1.557-.667zm-4.448 5.56v-3.336h4.448v3.336h-4.448zM37.804 44.864h4.448c.611 0 1.167-.222 1.556-.667.445-.444.667-1 .667-1.556v-3.336c0-.611-.222-1.167-.667-1.557-.444-.444-1-.667-1.556-.667h-4.448c-.611 0-1.167.223-1.557.667-.444.445-.667 1.001-.667 1.557v3.336c0 .611.223 1.167.667 1.556.39.445.946.667 1.557.667zm0-5.559h4.448v3.336h-4.448v-3.336zM31.133 29.298c0-.611-.223-1.167-.667-1.556-.445-.445-1.001-.668-1.557-.668h-4.448c-.611 0-1.167.223-1.556.668-.445.444-.667 1-.667 1.556v3.336c0 .611.222 1.167.667 1.556.445.445 1 .668 1.556.668h4.448c.611 0 1.167-.223 1.557-.667.444-.445.667-1.001.667-1.557v-3.336zm-6.672 3.336v-3.336h4.448v3.336h-4.448zM17.79 29.298c0-.611-.222-1.167-.667-1.556-.445-.445-1-.668-1.557-.668H11.12c-.612 0-1.168.223-1.557.668-.445.444-.667 1-.667 1.556v3.336c0 .611.222 1.167.667 1.556.445.445 1 .668 1.557.668h4.447c.612 0 1.168-.223 1.557-.667.445-.445.667-1.001.667-1.557v-3.336zm-6.671 3.336v-3.336h4.447v3.336H11.12zM55.594 34.858c.612 0 1.168-.223 1.557-.667.444-.445.667-1.001.667-1.557v-3.336c0-.611-.222-1.167-.667-1.556-.445-.445-1-.668-1.557-.668h-4.447c-.612 0-1.168.223-1.557.668-.445.444-.667 1-.667 1.556v3.336c0 .611.222 1.167.667 1.556.445.445 1 .668 1.557.668h4.447zm-4.447-5.56h4.447v3.336h-4.447v-3.336zM37.804 34.858h4.448c.611 0 1.167-.223 1.556-.667.445-.445.667-1.001.667-1.557v-3.336c0-.611-.222-1.167-.667-1.556-.444-.445-1-.668-1.556-.668h-4.448c-.611 0-1.167.223-1.557.668-.444.444-.667 1-.667 1.556v3.336c0 .611.223 1.167.667 1.556.39.445.946.668 1.557.668zm0-5.56h4.448v3.336h-4.448v-3.336zM37.804 54.538h4.448c.611 0 1.167-.223 1.556-.667.445-.445.667-1.001.667-1.557v-3.336c0-.611-.222-1.167-.667-1.556-.444-.445-1-.667-1.556-.667h-4.448c-.611 0-1.167.222-1.557.667-.444.389-.667 1-.667 1.556v3.336c0 .612.223 1.167.667 1.557.39.444.946.667 1.557.667zm0-5.56h4.448v3.336h-4.448v-3.336zM15.566 57.095H11.12c-.612 0-1.168.223-1.557.667-.445.445-.667 1.001-.667 1.557v3.336c0 .611.222 1.167.667 1.556.445.445 1 .667 1.557.667h4.447c.612 0 1.168-.222 1.557-.667.445-.444.667-1 .667-1.556v-3.336c0-.612-.222-1.168-.667-1.557-.39-.444-.945-.667-1.557-.667zm-4.447 5.56v-3.336h4.447v3.336H11.12zM51.147 48.978h4.447v.834c.779.056 1.501.167 2.224.334v-1.168c0-.611-.222-1.167-.667-1.556-.445-.445-1-.667-1.557-.667h-4.447c-.612 0-1.168.222-1.557.667-.445.389-.667 1-.667 1.556v1.946c.723-.278 1.445-.556 2.224-.722v-1.224zM37.804 62.655v-3.336h2.446c.334-.778.779-1.501 1.279-2.168-.111 0-.278-.056-.39-.056h-3.335c-.611 0-1.167.223-1.557.667-.444.445-.667 1.001-.667 1.557v3.336c0 .611.223 1.167.667 1.556.445.445 1.001.667 1.557.667h1.112c.056-.778.111-1.5.278-2.223h-1.39z" fill="#090750"/><path d="M57.818 51.258a14.276 14.276 0 00-2.224-.334c-.333 0-.667-.055-1-.055-1.168 0-2.336.166-3.447.389-.779.167-1.501.445-2.224.722a14.139 14.139 0 00-6.282 5.115c-.5.667-.89 1.39-1.279 2.168-.5 1.057-.834 2.169-1.112 3.336-.167.723-.222 1.446-.278 2.224v.611A14.544 14.544 0 0054.538 80a14.544 14.544 0 0014.566-14.566c.055-6.893-4.781-12.73-11.286-14.176z" fill="#83F78B"/><path d="M61.042 60.876l-8.617 8.617-3.947-3.947a1.098 1.098 0 00-.778-.334c-.278 0-.556.111-.779.334-.222.222-.333.5-.333.778s.111.556.334.778l4.725 4.726c.222.222.5.333.778.333s.556-.11.779-.333l9.45-9.451c.223-.223.334-.5.334-.779 0-.277-.111-.556-.333-.778a1.098 1.098 0 00-.779-.333c-.333.055-.611.166-.834.389z" fill="#fff"/></svg>