<svg width="70" height="80" fill="none" xmlns="http://www.w3.org/2000/svg"><path d="M36.888 62.997v4.15c0 1.153.922 2.132 2.132 2.132h3.4c-.576-3.573-1.325-6.455-1.959-8.414h-1.498c-1.153 0-2.075.922-2.075 2.132zM6.398 45.994l4.265 4.265h4.265l-4.265-4.265H6.398zM0 48.07l2.133 2.19h4.265L2.19 45.993h-.057L0 48.07zM14.928 45.994l8.415 8.473 1.268-.23V41.497l-1.268.231-4.265 4.265h-4.15z" fill="#83F78B"/><path d="M28.645 41.844v12.508a4.256 4.256 0 004.266 4.265l8.53.115c.807 2.248 2.017 6.225 2.767 11.758.172 1.325-.231 2.651-1.21 3.63l-.404.404c-.634.634-.98 1.557-.922 2.536.115 1.672 1.729 2.94 3.4 2.94h7.954c2.536 0 4.496-2.248 4.265-4.784-.634-6.916-2.594-12.046-4.15-15.1-.518-1.038-.057-2.191.922-2.767 3.92-2.248 6.283-6.974 4.9-12.104-1.269-4.669-5.764-7.493-10.606-7.493l-15.562-.115c-2.247-.058-4.15 1.844-4.15 4.207z" fill="#83F78B"/><path d="M20.519 79.77h-.173c-.75-.058-1.268-.52-1.21-1.21 0-.635.46-1.096 1.21-1.096h13.256s-.576-.865-.749-1.153c-.403-.634-.807-1.21-1.21-1.844-.404-.576-.634-1.21-.577-2.017v-6.283-5.764c0-.633-.173-.922-.691-1.21-1.268-.692-1.96-1.902-1.96-3.573v-5.303h-1.326c-2.42-.058-3.977-1.614-4.034-4.035v-4.034-2.536l-.461-.058c-.173-.058-.404-.058-.577-.115-1.729-.404-2.882-1.787-2.94-3.4-.057-2.421-.057-4.842-.057-7.205v-2.536-8.012H4.553c-2.248 0-3.804-1.21-4.15-3.227-.345-1.96 1.038-3.977 2.998-4.323a9.57 9.57 0 011.383-.116h14.293V8.07 6.8v-2.94c.058-1.844.98-3.112 2.71-3.63C22.42 0 27.262 0 30.836 0h15.389c1.095 0 2.132.288 2.997.865.173.115.346.23.461.345.692.692 1.038 1.614 1.038 2.94v6.57H65.186c2.248 0 3.804 1.21 4.15 3.286.173 1.037-.115 2.132-.807 2.997a3.453 3.453 0 01-2.478 1.325c-1.787.058-3.574.058-5.245.058h-2.479H50.72v16.945c0 2.652-1.152 3.977-3.861 4.438h-.116v6.686c-.057 2.306-1.613 3.862-3.976 3.92h-1.384v3.516c0 .806 0 1.613-.057 2.363-.116 1.325-.807 2.305-1.96 2.94-.519.287-.634.633-.634 1.152v12.046c0 .865-.173 1.556-.634 2.133-.404.576-.75 1.095-1.153 1.729-.173.288-.346.576-.519.806l-.172.231.691.058h12.392c.173 0 .346 0 .461.057.577.116.922.52.922 1.095 0 .577-.288.98-.864 1.153-.173.058-.346.058-.577.058l-28.76.057zm12.853-18.905v2.997c0 2.478.057 5.014-.058 7.55-.057 1.499.692 2.536 1.441 3.516l.115.173.116-.173c.749-1.037 1.44-2.017 1.383-3.516-.058-2.478-.058-5.072-.058-7.55v-4.093h-2.997v1.096h.058zm-2.594-10.26v1.614c0 1.268 0 2.651.058 3.92.057.806.634 1.267 1.671 1.267h4.842c1.152 0 1.729-.576 1.786-1.729V50.49h-8.357v.115zm-5.418-8.76v4.783c0 .865.634 1.441 1.556 1.441h15.851c.922 0 1.498-.519 1.556-1.383a67.846 67.846 0 000-4.842V39.77h-19.02c.115 0 .115 1.44.057 2.074zm-3.977-6.571c0 1.671.461 2.132 2.075 2.132H46.34c1.556 0 2.017-.518 2.017-2.017v-5.303-.922H21.383v6.11zm2.133-32.91c-1.614 0-2.075.46-2.075 2.132v22.248h26.974V4.495c0-1.614-.461-2.075-2.075-2.075H33.084l-9.568-.058zM4.784 13.025c-1.73 0-2.075.807-2.075 1.498 0 .404.115.75.346.98.346.346.922.52 1.729.52h13.372c.172 0 .288 0 .46-.059l.404-.057v-2.94h-1.037l-13.2.058zm46.974 0H50.72v2.824s.172.058.23.115c.058 0 .115.058.173.058H65.475c.865 0 1.5-.576 1.557-1.383.057-.807-.519-1.441-1.441-1.556H58.847l-7.09-.058z" fill="#090750"/></svg>