<svg width="70" height="80" fill="none" xmlns="http://www.w3.org/2000/svg"><path d="M39.656 52.855c9.985 0 18.077-8.092 18.077-18.077 0-9.986-8.092-18.078-18.077-18.078-9.986 0-18.078 8.092-18.078 18.078 0 9.985 8.092 18.077 18.078 18.077z" fill="#83F78B"/><path d="M27.719 73.343c-4.993-2.697-9.182-6.715-12.224-11.535l-.057-.058H3.73A3.723 3.723 0 010 58.02V36.098a3.723 3.723 0 013.73-3.73h6.6V5.28h2.697a70.617 70.617 0 0026.4-5.108L39.884 0l.402.172A70.618 70.618 0 0066.686 5.28h2.697v38.795c0 12.223-6.657 23.472-17.389 29.325L39.885 80 27.72 73.343zM18.996 58.25c-.058 1.033-.517 1.95-1.32 2.582l-.115.115.057.115a31.49 31.49 0 0011.134 10.33l11.076 6.026 11.076-6.026c9.985-5.452 16.24-15.954 16.24-27.317V7.518h-.458c-9.182 0-18.193-1.722-26.743-5.05h-.115c-8.551 3.328-17.561 5.05-26.743 5.05h-.46v24.907h2.87V10.387l1.09-.057c7.805-.344 15.553-1.894 22.898-4.649l.402-.114.402.172c7.346 2.697 15.093 4.304 22.898 4.648l1.09.058v3.558H61.98v-1.435h-.172c-7.46-.459-14.864-2.008-21.923-4.534h-.115c-7.058 2.583-14.404 4.075-21.922 4.534h-.172v20.717l.057.058c.804.689 1.205 1.664 1.205 2.697v.172h.172c2.985-.23 5.338-2.754 5.338-5.739v-6.657a5.633 5.633 0 015.624-5.624 5.633 5.633 0 015.624 5.624v8.15c0 .975.803 1.721 1.721 1.721h9.47c3.787 0 6.886 3.1 6.886 6.887v14.29c0 3.787-3.099 6.886-6.886 6.886H28.006c-1.837 0-3.558-.918-4.534-2.41a3.004 3.004 0 00-.976-.918l-.23.23c2.296 3.443 5.453 6.255 9.068 8.263l8.609 4.706 8.608-4.706c8.264-4.648 13.429-13.371 13.429-22.898V24.62h2.238v19.397c0 10.33-5.624 19.8-14.692 24.792l-9.64 5.28-9.642-5.28c-4.534-2.468-8.264-6.14-10.904-10.617l-.287-.516-.057.574zm11.19-37.82a3.392 3.392 0 00-3.385 3.386v6.658c0 4.246-3.329 7.804-7.576 8.034h-.172v17.16h1.722c1.836 0 3.558.917 4.534 2.41.573.918 1.606 1.434 2.697 1.434h19.053a4.63 4.63 0 004.648-4.648V40.517a4.63 4.63 0 00-4.648-4.649h-9.527a3.968 3.968 0 01-3.96-3.96v-8.092a3.392 3.392 0 00-3.386-3.386zM3.73 34.605a1.42 1.42 0 00-1.434 1.435v21.98c0 .803.63 1.435 1.492 1.435h11.65a1.42 1.42 0 001.434-1.435V36.098a1.42 1.42 0 00-1.434-1.435H3.73v-.057z" fill="#090750"/><path d="M64.218 19.455H61.98v2.238h2.238v-2.238zM13.888 54.347H5.165v2.238h8.723v-2.238z" fill="#090750"/></svg>