<svg width="65" height="80" fill="none" xmlns="http://www.w3.org/2000/svg"><path d="M61.829 47.558l-4.111-4.111a1.056 1.056 0 00-.722-.278H55.94v-1.055c0-.278-.11-.556-.277-.722l-8.333-8.333c-1.667-1.667-4.444-4.444-10.055-4.444-5.61 0-8.166 2.555-10.055 4.444a1.02 1.02 0 00-.222 1.11c.167.39.555.612.944.612 8.333 0 9.277 3.555 9.277 6.222 0 2.222-1.277 3.888-2.055 4.777l6.777 6.777c1.834-1.222 4.444-2.666 5.611-2.61v1.388c0 .278.111.556.278.722l5.166 5.167c.167.166.444.278.722.278h.167c.278 0 .555-.112.722-.334l7.222-8.277c.389-.333.389-.944 0-1.333zM14.11 66.945c-1 1-1.555 2.334-1.555 3.889a5.334 5.334 0 005.332 5.333c1.5 0 2.945-.611 3.945-1.722l18.61-20.554-6.667-6.666-19.665 19.72z" fill="#83F78B"/><path d="M56.107 53.28c2.778 2 4.11 8 4.389 10.11l2.055 15.666 2.166-.278-2.055-15.666c-.056-.333-1.167-8.61-5.222-11.554-1.389-.945-2.833-1.667-4.388-2.278-.111-.056-.167-.111-.278-.167l-.889-.333c-1.389-.5-2.778-1-4.166-1.444l-.834-.278c-.11-.056-.166-.056-.277-.056a98.578 98.578 0 00-5.389-1.555v-2.389a12.428 12.428 0 005.222-10.11v-1.833c.389.11.722.222 1.111.222 1.833 0 3.333-1.5 3.333-3.333v-3c0-.778-.278-1.555-.833-2.166.333-.556.555-1.223.5-1.89v-1.277c.055-.944-.222-1.833-.834-2.555a1.716 1.716 0 00-1.11-.611c-.278-3-1.667-11.777-9.222-15.166h-.056A17.917 17.917 0 0033.053.006h-.611a17.27 17.27 0 00-6.055.944h-.056c-8.388 3.056-9.888 12.444-10.11 15.555-.444.11-.778.333-1.111.61-.611.723-.889 1.612-.889 2.556v1.278c0 .666.167 1.333.5 1.889-.5.61-.833 1.388-.833 2.166v2.944c0 1.834 1.5 3.278 3.333 3.278.389 0 .778-.056 1.111-.222v1.833c0 3.944 1.889 7.721 5.11 10.055v2.444a100.72 100.72 0 00-11.387 3.666h-.056c-1.666.611-3.222 1.445-4.722 2.389-4.11 3-5.222 11.221-5.222 11.555L0 78.778l2.167.278 2.055-15.721c.278-2.111 1.61-8.11 4.333-10.11a22.09 22.09 0 012.777-1.5v9.387c-1.61.612-3.61 2.223-3.61 5.722V78.89c0 .611.5 1.111 1.11 1.111H55.94c.611 0 1.056-.5 1.056-1.111V66.834c0-3.444-2.056-5.11-3.611-5.722V51.78c1 .389 1.889.889 2.722 1.5zm-7.444-28.276v2.944c-.055.611-.611 1.111-1.222 1.056-.556-.056-1-.5-1.056-1.056v-2.944c-.055-.611.39-1.167 1.056-1.222.611-.056 1.166.444 1.222 1.055v.167zM33.886 2.228c1.334.111 2.611.389 3.889.833v5.5a5.362 5.362 0 01-3.889 2.277v-8.61zm-6 .556c1.279-.334 2.556-.556 3.89-.612v8.666c-1.556-.166-3-1-3.89-2.277V2.784zm-9.554 25.164c-.056.611-.611 1.111-1.222 1.056-.556-.056-1-.5-1.056-1.056v-2.944c-.055-.611.39-1.167 1.056-1.222.61-.056 1.166.444 1.222 1.055V27.948zm-1.111-6.277c-.222 0-.389 0-.611.056-.167-.223-.222-.5-.222-.778v-1.333c0-.334.055-.667.277-1 .056-.056.111-.056.167-.056h.389c.611 0 1.111-.5 1.111-1.11 0-.5.167-10.111 7.388-13.889v5.222c0 .167.056.333.111.445.056.166 1.834 3.777 7 3.777s6.944-3.61 7-3.777c.055-.167.11-.278.11-.445v-4.61c6.333 4.055 6.5 12.887 6.5 13.387 0 .611.5 1.111 1.111 1.111h.444c.111 0 .111 0 .167.056.167.278.278.666.278 1v1.277c.055.278-.056.556-.222.778a3.233 3.233 0 00-2.945.889h-25.72c-.611-.611-1.444-1-2.333-1zm3.277 11.221v-8.055h23.72v8.111c0 5.666-4.61 10.277-10.276 10.277H30.83a10.313 10.313 0 01-10.332-10.333zm18.5 11.388v1.611l-6.667 8.5-6.722-8.5v-1.666a11.906 11.906 0 005.166 1.166h3.111a12.25 12.25 0 005.111-1.11zm-19.61 4.556c2.055-.611 3.832-1.111 4.777-1.334l8.221 10.389 8.166-10.389c.945.223 2.723.723 4.834 1.39v12.443H19.332l.055-12.5zm35.497 17.998v11H9.888v-11c0-3.277 2.444-3.722 2.667-3.777.555-.056.944-.556.944-1.056v-11.11a70.923 70.923 0 013.666-1.278v12.833c0 .61.5 1.11 1.111 1.11h28.22c.612 0 1.112-.5 1.112-1.11V49.558l3.666 1.278v11.11c0 .555.389 1 .944 1.055.056.056 2.667.445 2.667 3.833z" fill="#090750"/><path d="M12.444 65.501h5.832v1.944h-5.832v-1.944zM46.441 65.501h5.833v1.944H46.44v-1.944z" fill="#090750"/></svg>