<svg width="25" height="25" viewBox="0 0 25 25" fill="none" xmlns="http://www.w3.org/2000/svg">
<circle cx="12.5" cy="12.5" r="12" stroke="#83F78B"/>
<path d="M12.5 6C13.9587 6 15.3576 6.57946 16.3891 7.61091C17.4205 8.64236 18 10.0413 18 11.5C18 14.1281 16.2262 16.5472 12.7457 18.7618C12.6722 18.8085 12.587 18.8332 12.5 18.8332C12.413 18.8332 12.3278 18.8085 12.2543 18.7618C8.77375 16.5472 7 14.1281 7 11.5C7 10.0413 7.57946 8.64236 8.61091 7.61091C9.64236 6.57946 11.0413 6 12.5 6ZM12.5 9.66667C12.0138 9.66667 11.5475 9.85982 11.2036 10.2036C10.8598 10.5475 10.6667 11.0138 10.6667 11.5C10.6667 11.9862 10.8598 12.4525 11.2036 12.7964C11.5475 13.1402 12.0138 13.3333 12.5 13.3333C12.9862 13.3333 13.4525 13.1402 13.7964 12.7964C14.1402 12.4525 14.3333 11.9862 14.3333 11.5C14.3333 11.0138 14.1402 10.5475 13.7964 10.2036C13.4525 9.85982 12.9862 9.66667 12.5 9.66667Z" fill="#83F78B"/>
</svg>
