<svg width="25" height="25" viewBox="0 0 25 25" fill="none" xmlns="http://www.w3.org/2000/svg">
<circle cx="12.5" cy="12.5" r="12" stroke="#83F78B"/>
<path d="M8.83333 8.4165C8.3471 8.4165 7.88079 8.60966 7.53697 8.95347C7.19315 9.29729 7 9.76361 7 10.2498V10.4341L12.5 13.3958L18 10.435V10.2498C18 9.76361 17.8068 9.29729 17.463 8.95347C17.1192 8.60966 16.6529 8.4165 16.1667 8.4165H8.83333Z" fill="#83F78B"/>
<path d="M18 11.4756L12.7173 14.32C12.6505 14.3559 12.5758 14.3748 12.5 14.3748C12.4242 14.3748 12.3495 14.3559 12.2828 14.32L7 11.4756V15.75C7 16.2362 7.19315 16.7025 7.53697 17.0464C7.88079 17.3902 8.3471 17.5833 8.83333 17.5833H16.1667C16.6529 17.5833 17.1192 17.3902 17.463 17.0464C17.8068 16.7025 18 16.2362 18 15.75V11.4756Z" fill="#83F78B"/>
</svg>
