<svg width="34" height="34" viewBox="0 0 34 34" fill="none" xmlns="http://www.w3.org/2000/svg">
<path d="M21.2954 24.9999C18.0358 24.9956 14.9108 23.6963 12.6059 21.3868C10.301 19.0773 9.00423 15.9462 9 12.68C9 11.7041 9.38694 10.768 10.0757 10.0779C10.7645 9.3878 11.6986 9.00009 12.6727 9.00009C12.8789 8.99852 13.0848 9.01727 13.2874 9.05609C13.4833 9.08513 13.6758 9.13336 13.8623 9.20009C13.9934 9.24619 14.1103 9.32579 14.2013 9.43102C14.2923 9.53625 14.3543 9.66346 14.3812 9.80008L15.475 14.6C15.5045 14.7303 15.501 14.8659 15.4647 14.9945C15.4285 15.123 15.3606 15.2404 15.2675 15.336C15.1637 15.448 15.1557 15.456 14.1737 15.968C14.9601 17.6966 16.3399 19.0849 18.0619 19.8799C18.5808 18.8879 18.5888 18.8799 18.7006 18.7759C18.796 18.6826 18.9131 18.6146 19.0414 18.5783C19.1698 18.542 19.3051 18.5384 19.4351 18.568L24.2255 19.6639C24.3575 19.6946 24.4795 19.7584 24.5801 19.8494C24.6807 19.9404 24.7565 20.0555 24.8004 20.1839C24.8678 20.3738 24.9185 20.5692 24.9521 20.7679C24.9842 20.969 25.0002 21.1723 25 21.3759C24.9853 22.3477 24.5875 23.2742 23.8934 23.9532C23.1993 24.6322 22.2654 25.0084 21.2954 24.9999Z" fill="#83F78B"/>
<circle cx="17" cy="17" r="16" stroke="#83F78B" stroke-width="2"/>
</svg>
